<svg id="Group_59" data-name="Group 59" xmlns="http://www.w3.org/2000/svg" width="27.362" height="27.362" viewBox="0 0 27.362 27.362">
  <path id="Path_5840" data-name="Path 5840" d="M13.68,1.711a12.284,12.284,0,0,1,4.978,1.081A11.976,11.976,0,1,1,13.68,1.711M13.68,0A13.681,13.681,0,1,0,27.363,13.681,13.68,13.68,0,0,0,13.68,0Z" transform="translate(-0.001)" fill="#4b4b4b"/>
  <g id="envelope" transform="translate(7 8.361)">
    <g id="Group_56" data-name="Group 56">
      <path id="Path_4" data-name="Path 4" d="M1.3,58.1q.257.181,1.547,1.076t1.978,1.378l.321.23q.245.178.408.287t.393.245a2.278,2.278,0,0,0,.434.2,1.2,1.2,0,0,0,.377.068h.015a1.2,1.2,0,0,0,.377-.068,2.28,2.28,0,0,0,.434-.2q.23-.136.393-.245t.408-.287q.245-.178.321-.23L12.237,58.1a3.586,3.586,0,0,0,.921-.928,1.994,1.994,0,0,0,.37-1.14A1.218,1.218,0,0,0,12.32,54.82H1.208a1.078,1.078,0,0,0-.895.392A1.524,1.524,0,0,0,0,56.194a1.763,1.763,0,0,0,.415,1.03A3.747,3.747,0,0,0,1.3,58.1Z" transform="translate(0 -54.82)" fill="#4b4b4b"/>
      <path id="Path_5" data-name="Path 5" d="M12.773,185.094q-2.476,1.676-3.759,2.6-.43.317-.7.494a4.309,4.309,0,0,1-.713.362,2.172,2.172,0,0,1-.83.185H6.756a2.173,2.173,0,0,1-.83-.185,4.311,4.311,0,0,1-.713-.362q-.268-.177-.7-.494-1.019-.747-3.752-2.6A4,4,0,0,1,0,184.437v5.994a1.163,1.163,0,0,0,.355.853,1.163,1.163,0,0,0,.853.355H12.32a1.211,1.211,0,0,0,1.208-1.208v-5.994A4.162,4.162,0,0,1,12.773,185.094Z" transform="translate(0 -181.01)" fill="#4b4b4b"/>
    </g>
  </g>
</svg>
