<svg xmlns="http://www.w3.org/2000/svg" width="27.362" height="27.362" viewBox="0 0 27.362 27.362">
  <path id="Path_5840" data-name="Path 5840" d="M13.68,1.711A11.97,11.97,0,1,1,1.71,13.681,11.97,11.97,0,0,1,13.68,1.711M13.68,0A13.681,13.681,0,1,0,27.363,13.681,13.68,13.68,0,0,0,13.68,0Zm7.628,18.256-.077-.231a2.166,2.166,0,0,0-1.319-1.252l-2.026-.553a1.982,1.982,0,0,0-1.737.453l-.732.732a7.77,7.77,0,0,1-5.461-5.464l.732-.732a1.984,1.984,0,0,0,.453-1.737l-.548-2.017A2.166,2.166,0,0,0,9.342,6.137l-.231-.08a1.83,1.83,0,0,0-1.711.4l-1.1,1.1a2.04,2.04,0,0,0-.327.751A12.92,12.92,0,0,0,19.016,21.372a2.017,2.017,0,0,0,.786-.318l1.1-1.1a1.833,1.833,0,0,0,.4-1.707Z" transform="translate(-0.001)" fill="#4b4b4b"/>
</svg>
